<?xml version="1.0" encoding="UTF-8"?>
<svg width="20px" height="20px" viewBox="0 0 20 20" version="1.1" xmlns="http://www.w3.org/2000/svg" xmlns:xlink="http://www.w3.org/1999/xlink">
    <!-- Generator: Sketch 51.2 (57519) - http://www.bohemiancoding.com/sketch -->
    <defs></defs>
    <g id="Group-1" stroke="none" stroke-width="1" fill="none" fill-rule="evenodd">
        <g id="Group-2" transform="translate(-389.000000, -662.000000)">
            <g id="Group-3" transform="translate(288.000000, 619.000000)">
                <g id="Group-4" transform="translate(23.000000, 31.000000)">
                    <g id="Group-5" transform="translate(66.000000, 0.000000)">
                        <g id="Group-6">
                            <g id="Group-7" transform="translate(12.466667, 12.466667)">
                                <path d="M9.53333333,3.68622222 C11.3234815,3.68622222 12.531037,4.45948148 13.2195556,5.10562963 L15.9100741,2.47866667 C14.2576296,0.942740741 12.1073333,0 9.53333333,0 C5.80474074,0 2.58459259,2.1397037 1.01688889,5.25392593 L4.09933333,7.64785185 C4.87259259,5.34925926 7.0122963,3.68622222 9.53333333,3.68622222 L9.53333333,3.68622222 Z" id="Shape" fill="#EA4335"></path>
                                <path d="M18.6853333,9.74518519 C18.6853333,8.96133333 18.6217778,8.38933333 18.4840741,7.79614815 L9.53333333,7.79614815 L9.53333333,11.3340741 L14.7872593,11.3340741 C14.6813333,12.2132593 14.1093333,13.5373333 12.8382222,14.4271111 L15.8465185,16.7574815 C17.6472593,15.0944444 18.6853333,12.6475556 18.6853333,9.74518519 L18.6853333,9.74518519 Z" id="Shape" fill="#4285F4"></path>
                                <path d="M4.10992593,11.4188148 C3.90866667,10.8256296 3.79214815,10.1900741 3.79214815,9.53333333 C3.79214815,8.87659259 3.90866667,8.24103704 4.09933333,7.64785185 L1.01688889,5.25392593 C0.370740741,6.54622222 0,7.99740741 0,9.53333333 C0,11.0692593 0.370740741,12.5204444 1.01688889,13.8127407 L4.10992593,11.4188148 L4.10992593,11.4188148 Z" id="Shape" fill="#FBBC05"></path>
                                <path d="M9.53333333,19.0666667 C12.1073333,19.0666667 14.2682222,18.2192593 15.8465185,16.7574815 L12.8382222,14.4271111 C12.0331852,14.9885185 10.9527407,15.3804444 9.53333333,15.3804444 C7.0122963,15.3804444 4.87259259,13.7174074 4.10992593,11.4188148 L1.02748148,13.8127407 C2.59518519,16.926963 5.80474074,19.0666667 9.53333333,19.0666667 L9.53333333,19.0666667 Z" id="Shape" fill="#34A853"></path>
                                <polygon id="Shape" points="0 0 19.0666667 0 19.0666667 19.0666667 0 19.0666667"></polygon>
                            </g>
                        </g>
                    </g>
                </g>
            </g>
        </g>
    </g>
</svg>
