<svg id="Layer_1" data-name="Layer 1" xmlns="http://www.w3.org/2000/svg" width="2.9798in" height="1.0095in" viewBox="0 0 214.5445 72.6834"><defs><style>.cls-1{fill:#fff;}</style></defs><path class="cls-1" d="M78.4717,9.6164c-.9459-1.59-10.6255-5.994-24.6262-8.843C48.0867,6.9178,48.0724,9.36,47.95,10.3723c-.1635,1.04,1.9052,3.6165,3.9883,6.292,3.8193,4.9331,4.8514,5.8344,5.4295,7.334,1.115,2.8147-.7261,9.1365-2.049,14.9941-.0121-.017-3.4413-12.3744-5.0326-20.3864A1.6948,1.6948,0,0,1,50.43,17.42c-8.6486-.8394-14.4465-1.2128-15.4963,3.2717-3.969.0094-5.7963,1.1333-6.1831,1.798-1.0372,1.6721.206,5.1625.8636,6.9025.5559-1.3648,4.1072-1.1421,5.2482-1.0763.5066.0242.5066.3237.6465.61l.0364,16.79H25.37L16.5248,69.2283c4.1022,1.9566,8.3872,3.4523,11.0373,3.4551,2.6677,0,9.2293-3.4463,10.1764-3.4551.894.0088,7.5324,3.4523,10.2112,3.4551,2.64,0,6.9224-1.3488,11.0367-3.4551L50.14,45.7171s-8.9294-.0012-10.1737-.0012V29.825c-.1779-1.051-.6421-1.409-1.0422-1.4753h5.1786c-.7515-3.0053-1.7837-5.1018-3.2379-5.25a6.7269,6.7269,0,0,1,1.3316-1.3654h-3.99c.4265-2.0826,5.5984-1.3333,7.802-1.1874,2.2888,11.2831,6.6185,26.4143,6.7942,26.68a25.1134,25.1134,0,0,0,4.28,1.65c2.1064-4.5071,5.28-17.78,5.4637-20.9954,2.649.9067,1.6013,4.4287,1.0432,7.9452-2.9937,18.2348-5.3586,23.7189-6.0759,27.11,2.649-.56,4.2956-1.04,4.5641-1.3312.42-.4132,1.6334-3.4982,2.6965-6.903,1.5295-4.9542,4.1044-17.5231,3.9552-22.47-.0121-1.1974-1.0178-2.3932-2.8-3.3071A28.2629,28.2629,0,0,0,67.2549,26.41c.5459-1.2907,1.188-3.4629,1.188-3.4529,1.0365.2911,1.9505.7553,2.0842,1.7974.5714,4.784.2718,5.2338-.3205,14.0565C70.032,41.6276,69.0308,47.2156,68.01,53.05c-1.9031,10.719-3.7022,15.3036-3.7022,16.9325,2.8026-.8951,4.963-1.5847,5.1786-1.9406A66.4918,66.4918,0,0,0,73.2966,54.56c.6331-3.3291,1.0818-6.6257,1.6156-10.0317a80.711,80.711,0,0,0,.9051-13.0519c0-5.6829.6718-5.7117-3.5276-7.944,1.61-4.6293,1.2643-7.6546.8631-8.521-.7227-1.6511-1.6046-1.6511-5.321-1.3653,1.3471,1.2123.9271,3.7585.6111,5.2493-.7316-.5913-.4465-1.6407-4.42-1.4754-.5967-6.4566-1.7914-7.1766-1.945-7.37-.568-.7349-3.8468-.3895-4.8514,0,.7349.4642,2.2158,5.5571,1.4731,7.5137-.4388-.6089-6.0416-6.9009-5.6084-8.09.27-.7272.599-1.5058,2.5174-3.7386,6.6351,1.183,18.0045,5.3774,18.588,6.5792a18.7768,18.7768,0,0,1,1.7615,5.68,129.0761,129.0761,0,0,1,1.1858,26.0662c-.579,13.941-2.4081,21.8508-2.3738,21.4287a15.4662,15.4662,0,0,0,5.7919-4.4945c.8874-2.2882,1.3051-10.482,1.6145-17.9764a158.2891,158.2891,0,0,0-.8984-20.529C80.2476,13.8086,79.6509,11.562,78.4717,9.6164Zm-50.91,58.1382c-2.0053-.016-5.1526-.3144-5.14-.3221l5.14-14.8135,4.747,14.8135C32.2969,67.44,29.4048,67.7386,27.5621,67.7546Zm25.5286-.3221c0,.0077-3.1463.3061-5.141.3221-1.84-.016-4.7321-.3144-4.7464-.3221L47.95,52.619ZM39.9664,55.8912V50.2093H44.39L37.7385,68.6541,31.1233,50.2093h4.4215v4.0619c-.0121-.0144.0028.3751.1448.4315.593.3017.7266.3017.7178.289Zm.5769-29.9507H32.8848c-.5879-1.7935-.0326-2.2439,1.6168-2.4085C37.5992,23.2479,40.267,23.2479,40.5433,25.9405Zm21.5341-8.0888c2.818-.4475,1.4985,4.4973.756,6.4351a22.9362,22.9362,0,0,0-3.521-5.9682A16.3987,16.3987,0,0,1,62.0774,17.8517Z" transform="translate(-0.0757 0)"/><path class="cls-1" d="M12.5348,58.7657c1.3068-1.3616,6.0549-6.2611,6.76-8.8449a71.12,71.12,0,0,0,1.6179-12.2927A54.6913,54.6913,0,0,0,13.83,43.3052c-1.008,1.1106-2.49,3.0135-2.48,3.02a11.5574,11.5574,0,0,1,1.3294-7.5142c1.6118-2.5308,7.3351-7.3993,8.0894-9.4189,1.2073-3.1943,1.0438-5.9957,2.0853-9.4553a28.93,28.93,0,0,0-10.7853,6.6147c-.294-3.753.8742-6.48,3.4148-8.4127,3.6165-2.7413,8.3949-4.33,11.5053-5.2129,2.6727-.7945,6.9572-1.6488,9.1332-2.6964,3.9966-1.9632,7.8-7.3865,8.7-10.2123A27.2061,27.2061,0,0,0,34.2143,1.5292c-1.6471.6553-2.4716,2.1981-3.2353,3.4508C30.1408,6.29,29.39,7.3222,28.75,8.2516a11.2019,11.2019,0,0,1-7.0827,4.9615,12.871,12.871,0,0,0,3.2369-4.2067A57.7673,57.7673,0,0,0,27.42,1.5292c-2.5081.2962-4.0514,1.0449-6.6522,2.0832C17.99,4.7468,17.152,5.87,16.5248,6.9228c-1.7992,2.8406-1.3488,10.7808-5.0333,13.911.1482-4.1779,1.0306-8.6734-.4669-13.911C3.37,9.9142,1.9318,12.5809,2.5032,15.91c.6707,4.2806,5.5852,6.2886,7.6589,9.8846a9.9687,9.9687,0,0,1,.8991,2.6617,10.7211,10.7211,0,0,0-1.0438,6.1853A43.3625,43.3625,0,0,0,7.0683,29.825c-2.2615-2.9219-6.65-7.4816-6.65-7.4816-.8841,11.6887.5388,13.98,1.1875,14.9953C3.0547,39.845,8.5835,43.71,9.73,46.0022c.5763,1.2134.7211,1.6626.7211,1.6549.2.4575-1.1041,1.9267-.8643,3.9171.0614.7205.27,1.6322.4311,2.697A57.93,57.93,0,0,0,6.1711,49.31a41.6165,41.6165,0,0,0-6.04-5.1061C-.12,45.5076.5537,52.0112.7057,53.05c.5365,3.3192.6868,6.39,3.38,9.1326,2.3854,2.41,10.0549,5.556,11.6849,6.1472a32.3547,32.3547,0,0,0-1.0433-3.5943C13.9012,62.3622,12.5221,58.7513,12.5348,58.7657Z" transform="translate(-0.0757 0)"/><path class="cls-1" d="M84.8029,7.01h2.1583a8.5271,8.5271,0,0,1,4.1375,1.0791,4.051,4.051,0,0,1,1.8422,1.934,20.1953,20.1953,0,0,1,.5857,6.1151V55.5255q0,5.4876-1.0808,6.9257-1.7058,2.2023-5.4846,2.2019H84.8029V66.318h26.1237V64.6531H108.723a8.2663,8.2663,0,0,1-4.0911-1.08,4.0191,4.0191,0,0,1-1.8887-1.9323,20.1858,20.1858,0,0,1-.5834-6.1151V16.1382q0-5.486,1.1228-6.9251,1.7074-2.2014,5.44-2.2031h2.2036V5.3457H84.8029Z" transform="translate(-0.0757 0)"/><path class="cls-1" d="M212.9338,43.7892a17.1709,17.1709,0,0,0-4.8106-5.7764,91.6242,91.6242,0,0,0-11.6667-7.0374q-10.48-5.6195-13.2679-8.9922a7.704,7.704,0,0,1-1.934-5.0814,8.6872,8.6872,0,0,1,3.06-6.4969A10.8867,10.8867,0,0,1,192.0483,7.55a16.4917,16.4917,0,0,1,8.0043,2.1119,15.1028,15.1028,0,0,1,5.9576,5.71,26.3034,26.3034,0,0,1,2.9,9.6675h1.6642V3.9522H208.91a5.5658,5.5658,0,0,1-1.1913,2.8108,2.68,2.68,0,0,1-1.9108.6951,10.5624,10.5624,0,0,1-3.554-1.1233,25.7236,25.7236,0,0,0-10.293-2.3826,17.9349,17.9349,0,0,0-12.816,4.7442,15.0145,15.0145,0,0,0-5.0382,11.3092,14.2923,14.2923,0,0,0,1.7085,6.9235,18.8983,18.8983,0,0,0,5.0128,5.7554,92.9684,92.9684,0,0,0,11.1329,6.99,110.3533,110.3533,0,0,1,9.5758,5.7339,13.522,13.522,0,0,1,3.8424,4.2723,9.5083,9.5083,0,0,1,1.2367,4.541,9.1932,9.1932,0,0,1-3.259,7.0136q-3.2572,2.9679-8.88,2.9683a18.749,18.749,0,0,1-8.926-2.1583,15.1081,15.1081,0,0,1-6.0482-5.4184q-1.9776-3.2606-3.1474-9.8238h-1.6632V64.5473a16.8543,16.8543,0,0,1-5.82-2.4133q-3.1016-1.9752-7.4187-8.0016L148.8639,36.6408q7.6882-1.7058,11.3528-5.8444a14.2424,14.2424,0,0,0,3.6646-9.756,13.5756,13.5756,0,0,0-3.2159-9.0618,16.3765,16.3765,0,0,0-7.8231-5.2156q-4.6083-1.4146-14.321-1.4173H116.3084V7.01h2.2943a6.5987,6.5987,0,0,1,5.215,1.9792q1.26,1.3918,1.26,7.149V55.5255q0,5.2165-.9438,6.6085-1.6644,2.52-5.5311,2.5191h-2.2943V66.318h26.1249V64.6531h-2.3826a6.4071,6.4071,0,0,1-5.1267-1.9792q-1.2581-1.3924-1.2576-7.1484V37.8094c.4786.03.9438.0542,1.3925.0686.4509.0154.8687.0226,1.26.0226.958,0,2.2025-.0281,3.7319-.0912L160.6886,66.318l14.0039.0025v0h1.9616a3.3362,3.3362,0,0,1,.6686-1.3963,2.34,2.34,0,0,1,1.7771-.6752,25.9084,25.9084,0,0,1,5.5531,1.4162,51.6713,51.6713,0,0,0,5.7753,1.6422,29.4467,29.4467,0,0,0,4.9929.4023q8.4541,0,13.8249-5.0128A15.7759,15.7759,0,0,0,214.62,50.7586,15.208,15.208,0,0,0,212.9338,43.7892Zm-76.75-8.7663c-.2707,0-.6144-.0083-1.0355-.0226-.4178-.0144-.9129-.0227-1.482-.0227V9.6164a39.7846,39.7846,0,0,1,7.0584-.8531,12.8025,12.8025,0,0,1,9.4653,3.5733,12.564,12.564,0,0,1,3.575,9.2869,12.0841,12.0841,0,0,1-4.43,9.62Q144.907,35.0234,136.1839,35.0229Z" transform="translate(-0.0757 0)"/></svg>