<?xml version="1.0" encoding="UTF-8"?>
<svg width="21px" height="20px" viewBox="0 0 21 20" version="1.1" xmlns="http://www.w3.org/2000/svg" xmlns:xlink="http://www.w3.org/1999/xlink">
    <!-- Generator: Sketch 51.2 (57519) - http://www.bohemiancoding.com/sketch -->
    <defs></defs>
    <g id="Group-1" stroke="none" stroke-width="1" fill="none" fill-rule="evenodd">
        <g id="Group-2" transform="translate(-454.000000, -661.000000)" fill="#0077B5">
            <g id="Group-3" transform="translate(288.000000, 619.000000)">
                <g id="Group-4" transform="translate(23.000000, 31.000000)">
                    <g id="Group-5" transform="translate(131.000000, 0.000000)">
                        <path d="M16.9615237,17.88029 L16.9615237,30.6314613 L12.7176193,30.6314613 L12.7176193,17.88029 L16.9615237,17.88029 Z M17.241038,13.9358384 C17.241038,15.1601857 16.3194376,16.1398667 14.8396563,16.1398667 L14.8125354,16.1398667 C13.3877585,16.1398667 12.4666667,15.1601857 12.4666667,13.9358384 C12.4666667,12.6855941 13.4158116,11.7333333 14.8676246,11.7333333 C16.3194376,11.7333333 17.2134934,12.6855941 17.241038,13.9358384 Z M32.2666667,23.3203294 L32.2664972,30.6314613 L28.0227622,30.6314613 L28.0227622,23.8095775 C28.0227622,22.0960666 27.4086445,20.9268136 25.8723331,20.9268136 C24.6998649,20.9268136 24.001503,21.7150608 23.6947831,22.4763954 C23.5825706,22.7492437 23.555026,23.1294033 23.555026,23.5104938 L23.555026,30.6317998 L19.3106131,30.6317998 C19.3106131,30.6317998 19.3665498,19.0771325 19.3106131,17.8806286 L23.555026,17.8806286 L23.555026,19.686725 C24.1182922,18.8185022 25.127103,17.5808678 27.3803371,17.5808678 C30.1730218,17.5808678 32.2666667,19.4037211 32.2666667,23.3203294 Z" id="Shape"></path>
                    </g>
                </g>
            </g>
        </g>
    </g>
</svg>
